<svg xmlns="http://www.w3.org/2000/svg" width="50" height="50" viewBox="0 0 50 50" fill="none"><path d="M25.0781 44.3359C25.6445 44.3867 25.9297 42.5391 26.8281 41.8281C27.7265 41.1172 30.1836 39.418 30.9883 38.2344C31.793 37.0508 31.7461 35.918 31.7461 35.918C31.7461 35.918 32.414 38.0156 36.1328 38.1484C39.375 38.2656 41.8164 36.4375 43.8515 35.8242C45.8867 35.2109 47.4922 35.4922 47.4922 35.1133C47.4922 34.7344 46.5469 33.4102 45.6015 32.8437C44.6562 32.2773 39.9258 29.0664 39.9258 29.0664C39.9258 29.0664 41.0586 28.6328 42.289 26.2227C43.5195 23.8125 44.6055 21.3984 45.457 19.8398C46.3086 18.2812 46.5937 18.043 46.9687 17.7578C47.3437 17.4727 48.2461 17.0977 48.2461 16.9062C48.2461 16.7148 47.8672 16.3398 47.1094 16.3398C46.3515 16.3398 38.9765 17.8516 38.9765 17.8516C38.9765 17.8516 39.1055 16.9258 39.0117 15.1758C38.918 13.4258 38.6445 11.2344 38.6445 10.4766C38.6445 9.71875 38.9297 8.11328 38.832 8.01953C38.7344 7.92578 36.6562 8.58593 36.6562 8.58593L30.6015 13.6445L27.6211 10.0508C27.6211 10.0508 25.4922 6.21875 24.7383 6.07812C23.9805 5.9375 21.664 10.7578 21.664 10.7578L19.2539 14.0664L11.3594 8.04687C11.3594 8.04687 10.8476 8.0625 11.0781 8.77734C11.2617 9.34765 11.2812 10.3906 10.8086 11.6172C10.2422 13.0937 9.5078 14.6406 9.59764 16.2734C9.66796 17.5547 10.2226 18.7539 10.2226 18.7539C10.2226 18.7539 0.812487 16.957 0.574205 17.2891C0.335924 17.6211 0.574205 18.0469 1.51952 18.7539C2.46483 19.4609 3.36327 20.0781 4.07421 20.8828C4.78514 21.6875 6.34374 24.1445 7.28905 25.707C8.23436 27.2656 8.84764 27.8828 9.65233 28.6406C10.457 29.3984 12.7266 30.8164 12.7266 30.8164L5.35155 34.3633L3.79296 36.1601C3.79296 36.1601 3.69921 36.4922 4.03124 36.5391C4.36327 36.5859 4.92967 36.2539 5.96874 36.4453C7.0078 36.6367 10.6992 38.7617 14.1484 38.2891C18.3945 37.707 18.9726 36.3047 18.9726 36.3047C18.9726 36.3047 19.3047 37.582 20.7226 39.1406C22.1406 40.6992 23.6562 41.9297 24.0312 42.4961C24.414 43.0625 24.5547 44.2891 25.0781 44.3359Z" fill="#FD7D84"></path><path d="M20.0859 32C20.0859 32 19.0078 34.3711 20.2461 36.0977C21.4843 37.8242 23.1562 39.0078 23.8046 39.8164C24.4531 40.625 24.9375 41.918 25.2617 41.918C25.5859 41.918 26.6093 39.7617 27.6875 38.9531C28.7656 38.1445 31.1914 36.6875 30.9765 34.4766C30.7617 32.2656 29.3593 30.5391 29.3593 30.5391L20.6796 28.8125L20.0859 32Z" fill="url(#paint0_radial_29_11)"></path><path d="M30.7422 30.3281C30.7422 30.3281 30.6329 34.0898 33.9415 34.8203C37.9063 35.6992 38.2266 33.1172 41.8946 33.082C45.5626 33.0469 47.4883 35.1172 47.4883 35.1172C47.4883 35.1172 46.7501 32.6445 43.4337 30.4727C41.3477 29.1055 39.9454 29.0703 39.9454 29.0703C39.9454 29.0703 38.5626 29.9141 36.5665 30.543C35.1993 30.9727 33.0782 30.9375 33.0782 30.9375L30.7422 30.3281Z" fill="url(#paint1_radial_29_11)"></path><path d="M15.5704 30.5078C15.5704 30.5078 14.4141 30.8008 11.9375 29.9688C10.4102 29.457 9.53911 28.5273 9.53911 28.5273C9.53911 28.5273 7.62505 28.8203 6.11333 31.0117C4.60161 33.2031 4.35161 34.8242 4.17192 35.2188C3.99224 35.6133 3.74614 36.0195 3.79692 36.1602C3.89067 36.4375 5.86333 34.2109 9.24224 33.7109C12.6211 33.2109 13.4532 35.0156 16.6133 33.9609C18.3399 33.3867 18.9844 32.0547 18.9844 32.0547C18.9844 32.0547 19.1641 31.3008 18.0508 30.7969C17.3438 30.4727 15.5704 30.5078 15.5704 30.5078Z" fill="url(#paint2_radial_29_11)"></path><path d="M22.2383 12.0703C22.2383 12.0703 22.2969 11.0117 23.2969 9.04688C23.7539 8.14453 24.6875 6.90234 24.6875 6.90234C24.6875 6.90234 25.5625 7.99219 26.2305 9.14062C26.8984 10.2891 27.6211 11.7383 27.6211 11.7383L25.9297 13.582L23.2109 13.7617L22.2383 12.0703Z" fill="url(#paint3_radial_29_11)"></path><path d="M14.4492 23.6367C14.4492 23.6367 12.1718 20.0156 11.9726 19.5078C11.8007 19.0781 11.1367 17.6641 11.2226 15.4727C11.3085 13.2812 12.1484 12.2461 12.0273 10.1992C11.9218 8.41406 11.3593 8.04297 11.3593 8.04297C11.3593 8.04297 13.3359 8.0625 16.039 10.1406C18.7421 12.2187 19.2578 14.0703 19.2578 14.0703L17.6914 21.1875L14.4492 23.6367Z" fill="url(#paint4_radial_29_11)"></path><path d="M29.1953 15.3828C29.1953 15.3828 30.0508 11.3984 33.2656 9.54688C36.4805 7.69531 38.8047 7.91797 38.8398 8.01953C38.875 8.12109 37.3281 9.51563 37.2148 11.9375C37.1016 14.3555 37.5195 15.9492 37.2539 17.8867C37.0742 19.1953 36.6094 20.8281 36.6094 20.8281L34.6914 21.957L29.1953 15.3828Z" fill="url(#paint5_radial_29_11)"></path><path d="M36.2812 27.1094L35.1133 24.5742L35.5703 20.7578C35.5703 20.7578 36.9375 18.6211 40.3828 17.0274C43.8281 15.4336 47.3008 16.1172 47.7852 16.3164C48.2695 16.5156 48.25 16.9063 48.25 16.9063L46.5625 17.0586L44.0859 19.3359L40.7266 23.3789L38.3086 26.3125L36.7695 26.7969L36.2812 27.1094Z" fill="url(#paint6_radial_29_11)"></path><path d="M34.8711 27.2773C34.8711 27.2773 36.8672 28.0938 38.6211 26.4922C40.0586 25.1797 42.5195 21.8086 43.457 20.6289C44.2969 19.5703 45.6328 18.1484 46.4805 17.668C47.4531 17.1094 48.207 17.1602 48.25 16.9141C48.293 16.668 47.7422 16.3789 46.875 16.6406C45.6641 17.0039 44.2813 18.3242 42.582 20.4492C40.7695 22.7148 38.0781 26.0117 37.1719 26.3125C36.2617 26.6094 34.8711 27.2773 34.8711 27.2773Z" fill="#FFEAC8"></path><path d="M14.414 23.7734C14.414 23.7734 13.4258 19.4766 9.63671 18.0859C4.79296 16.3086 0.624987 16.9687 0.5703 17.2539C0.515612 17.5391 3.14452 18.7695 3.14452 18.7695L6.76171 21.1875L11.0898 25.7148L12.6562 26.4844L14.6211 26.9414L14.414 23.7734Z" fill="url(#paint7_radial_29_11)"></path><path d="M14.0157 26.7305C14.0157 26.7305 13.5196 27.9414 11.375 26.3398C9.23051 24.7383 7.37113 22.1992 5.25394 20.6875C3.13676 19.1758 0.707068 18.0859 0.515662 17.6953C0.378943 17.418 0.414099 17.0898 0.894568 17.2422C1.37504 17.3945 3.66801 18.418 5.93363 20.1094C8.03129 21.6758 10.1993 24.1445 11.711 25.2344C13.2227 26.3242 14.0157 26.7305 14.0157 26.7305Z" fill="#FDEBC8"></path><path d="M18.0078 16.2344C18.0078 16.2344 18.3203 13.7578 19.2031 12.0781C19.6797 11.1758 20.5977 9.77343 20.7969 9.80078C20.9961 9.82812 22.3906 11.3672 23.0156 11.8789C23.6406 12.3906 24.7539 13.3867 24.7539 13.3867C24.7539 13.3867 26.3203 11.7656 26.9453 11.0234C27.5703 10.2852 27.9414 9.34374 28.2852 9.3164C28.625 9.28906 29.7656 11.1367 30.3906 12.1328C31.0156 13.1289 32.0703 15.9766 32.0703 15.9766L18.0078 16.2344Z" fill="url(#paint8_radial_29_11)"></path><path d="M19.0391 21.0117C19.0391 21.0117 22.2227 20.0039 25.5703 19.8203C28.918 19.6367 32.6719 20.4844 32.6719 20.4844L31.8242 23.5078L25.6836 24.0586L19.3359 23.3047L19.0391 21.0117Z" fill="#FEA826"></path><path d="M25.293 13.9805C31.6875 13.9141 34.207 16.1563 34.207 16.1563L35.0078 18.1055L32.3281 20.582C32.3281 20.582 29.3242 21.3359 25.6602 21.4063C22.1328 21.4766 17.6875 20.5117 17.6875 20.5117L16.3125 17.0977C16.3125 17.0938 17.8945 14.0586 25.293 13.9805Z" fill="#FFD51D"></path><path d="M22.4219 15.4531C21.8086 15.4766 21.2422 15.9062 21.3516 16.3555C21.4687 16.8476 21.8281 17.0547 22.5586 17.0547C23.2891 17.0547 23.6133 16.543 23.6133 16.2226C23.6133 15.9023 23.2734 15.418 22.4219 15.4531ZM27.0391 16.0586C27.0547 16.5351 27.5 16.8906 28.1953 16.8594C28.8945 16.8242 29.1992 16.4844 29.1836 16.0078C29.168 15.5312 28.6211 15.2422 28.1445 15.2578C27.6719 15.2734 27.0195 15.5117 27.0391 16.0586ZM28.3125 18.8398C28.3125 19.418 28.8906 19.5547 29.3672 19.5703C29.8438 19.5859 30.4414 19.3476 30.4219 18.8203C30.4062 18.3281 29.9141 18.1055 29.3672 18.1055C28.8398 18.1094 28.3125 18.3633 28.3125 18.8398ZM30.0625 16.9297C30.0469 17.4258 30.6758 17.5781 31.1016 17.5586C31.5273 17.543 32.0039 17.4219 32.0195 16.8945C32.0352 16.3828 31.543 16.2305 31.0312 16.2305C30.5898 16.2344 30.082 16.4023 30.0625 16.9297ZM20.3633 19.0937C20.3828 19.5859 20.8242 19.8594 21.3164 19.8437C21.8086 19.8281 22.2344 19.4023 22.1836 19.0273C22.1328 18.6523 21.7578 18.3125 21.2461 18.3281C20.7383 18.3476 20.3477 18.6172 20.3633 19.0937ZM18.5156 16.8281C18.5156 17.2695 18.9219 17.4922 19.5352 17.4766C20.0977 17.4609 20.5391 17.2891 20.5234 16.7969C20.5078 16.3164 20.0469 16.168 19.4844 16.1836C18.9258 16.1992 18.5156 16.4375 18.5156 16.8281Z" fill="#FD8C03"></path><path d="M17.4688 15.9453C17.4688 15.9453 16.9258 15.5195 16.4766 15.1406C16.1055 14.8242 15.6016 14.4219 15.5 14.25C15.3984 14.0781 15.1719 13.8555 14.9336 14.0078C14.6953 14.1601 14.8125 15.0391 14.8125 15.0391L15.2578 23.4883L23.2617 31.3555L27.5391 31.5312L35.3359 23.4961L35.2813 21.9531L35.7695 14.8906C35.7695 14.8906 35.5195 14.5391 34.8789 14.9922C34.3633 15.3555 33.625 15.7656 33.625 15.7656L34.2109 16.1523C34.2109 16.1523 32.8945 17.1367 31.9453 18.6719C30.9961 20.207 30.5 22.8047 30.5 22.8047C30.5 22.8047 28.4258 20.4961 27.6094 19.2695C26.793 18.043 25.9453 16.3359 25.4492 16.3633C24.9531 16.3906 24.6758 17.8828 23.9609 18.9492C23.2461 20.0156 21.1289 22.8633 21.1289 22.8633C21.1289 22.8633 19.918 19.8398 18.9375 18.5547C17.957 17.2695 16.9961 16.3203 16.9961 16.3203L17.4688 15.9453Z" fill="#FAEAC7"></path><path d="M31.5899 25.0078C31.5899 25.0078 31.0274 21.5938 32.4024 19.3281C33.957 16.7734 34.9531 16.207 35.2656 15.793C35.7774 15.1172 35.6758 14.8555 35.7383 14.875C35.9219 14.9336 36.3477 15.5781 36.0938 18.2109C35.8399 20.8438 35.5391 22.7734 35.5391 22.7734L35.2422 22.3477C35.2422 22.3477 35.0352 22.1758 34.7305 22.3398C34.4258 22.5039 33.1992 23.6016 32.8906 23.8906C32.582 24.1797 31.5899 25.0078 31.5899 25.0078Z" fill="url(#paint9_radial_29_11)"></path><path d="M19.9843 24.6094L20.6484 23.5352C20.6484 23.5352 19.8046 21.168 18.414 19.0547C17.3203 17.3945 16.6679 16.9453 16.0195 16.1133C15.1992 15.0625 14.7968 14.3477 14.7968 14.3477C14.7968 14.3477 14.6171 15.6602 14.5703 16.7344C14.5234 17.8555 14.5078 19.0078 14.7578 20.6094C14.914 21.6289 15.1132 22.293 15.1132 22.293L15.164 22.1836C15.164 22.1836 15.2812 21.8203 15.7109 21.832C16.2265 21.8477 16.7031 22.4453 17.8085 23.207C18.914 23.9688 19.9843 24.6094 19.9843 24.6094Z" fill="url(#paint10_radial_29_11)"></path><path d="M25.5781 17.4844C25.4102 17.4648 24.9062 19.1601 23.9883 20.375C23.0703 21.5898 22.3437 22.4531 21.7422 23.4609C21.1445 24.4726 20.8711 25.2734 20.8711 25.2734C20.8711 25.2734 21.9258 26.2031 22.6953 27.4062C23.2852 28.3242 23.9883 29.9219 24.0781 30.5312C24.1367 30.9258 24.0195 31.2969 23.8164 31.3515C23.7969 31.3555 23.6875 31.332 23.6719 31.3398C23.5664 31.4023 23.6445 31.5703 23.6445 31.5703C23.6445 31.5703 24.4141 31.7226 25.0313 31.7226C25.6484 31.7226 26.582 31.5781 26.582 31.5781L26.6211 31.2383C26.6211 31.2383 26.3594 31.164 26.3203 30.9687C26.2773 30.75 26.2813 30.4336 26.8047 29.5742C27.3281 28.7148 28.1523 27.6094 28.957 26.8789C29.7617 26.1484 30.8828 25.418 30.8828 25.418C30.8828 25.418 30.4336 24.2383 29.6289 23.0234C28.8242 21.8086 27.6094 20.7031 27.0859 19.8984C26.5703 19.1055 25.7461 17.5039 25.5781 17.4844Z" fill="url(#paint11_radial_29_11)"></path><path d="M35.2422 22.3555C35.2422 22.3555 34.7422 23.457 33.582 24.4961C32.4258 25.5391 30.9961 26.4648 29.6836 27.7773C28.3711 29.0898 26.6211 31.2461 26.6211 31.2461L26.5 31.5586C26.5 31.5586 28.043 32.3477 31.5352 31.5781C35.0273 30.8086 37.1094 28.0664 37.0156 26.2344C36.9219 24.4023 35.2422 22.3555 35.2422 22.3555Z" fill="url(#paint12_radial_29_11)"></path><path d="M15.3906 22.0859C15.6757 22.125 16.2187 23.0899 17.2226 23.8984C18.2265 24.707 20.2148 25.9258 21.5038 27.5274C22.7968 29.1289 23.7226 31.3711 23.7226 31.3711L23.6679 31.582C23.6679 31.582 20.6367 32.7539 17.6093 31.6563C14.582 30.5586 13.1132 27.7969 12.8437 26.1953C12.5742 24.5938 13.4023 23.4766 14.3671 22.8399C15.0312 22.4024 15.1015 22.0469 15.3906 22.0859Z" fill="url(#paint13_radial_29_11)"></path><defs><radialGradient id="paint0_radial_29_11" cx="0" cy="0" r="1" gradientUnits="userSpaceOnUse" gradientTransform="translate(25.3953 31.9992) scale(6.12578 6.12578)"><stop offset="0.321" stop-color="#FFC5AC"></stop><stop offset="0.999" stop-color="#FEA8A7"></stop></radialGradient><radialGradient id="paint1_radial_29_11" cx="0" cy="0" r="1" gradientUnits="userSpaceOnUse" gradientTransform="translate(33.0555 29.0719) scale(9.5082 9.50821)"><stop offset="0.279" stop-color="#FFC5AC"></stop><stop offset="0.999" stop-color="#FEA8A7"></stop></radialGradient><radialGradient id="paint2_radial_29_11" cx="0" cy="0" r="1" gradientUnits="userSpaceOnUse" gradientTransform="translate(17.3012 28.6871) scale(11.8344)"><stop offset="0.272" stop-color="#FFC5AC"></stop><stop offset="0.999" stop-color="#FEA8A7"></stop></radialGradient><radialGradient id="paint3_radial_29_11" cx="0" cy="0" r="1" gradientUnits="userSpaceOnUse" gradientTransform="translate(24.7805 15.7957) scale(7.68477)"><stop offset="0.62" stop-color="#FFC5AC"></stop><stop offset="0.999" stop-color="#FEA8A7"></stop></radialGradient><radialGradient id="paint4_radial_29_11" cx="0" cy="0" r="1" gradientUnits="userSpaceOnUse" gradientTransform="translate(13.4714 17.8016) scale(7.07383)"><stop offset="0.182" stop-color="#FED1B1"></stop><stop offset="0.999" stop-color="#FEA8A7"></stop></radialGradient><radialGradient id="paint5_radial_29_11" cx="0" cy="0" r="1" gradientUnits="userSpaceOnUse" gradientTransform="translate(34.223 16.3289) scale(6.42305 6.42305)"><stop offset="0.182" stop-color="#FED1B1"></stop><stop offset="0.999" stop-color="#FEA8A7"></stop></radialGradient><radialGradient id="paint6_radial_29_11" cx="0" cy="0" r="1" gradientUnits="userSpaceOnUse" gradientTransform="translate(34.9039 25.5699) scale(10.8012 10.8012)"><stop offset="0.279" stop-color="#FFC5AC"></stop><stop offset="0.999" stop-color="#FEA8A7"></stop></radialGradient><radialGradient id="paint7_radial_29_11" cx="0" cy="0" r="1" gradientUnits="userSpaceOnUse" gradientTransform="translate(14.9629 25.952) scale(11.0582 11.0582)"><stop offset="0.279" stop-color="#FFC5AC"></stop><stop offset="0.999" stop-color="#FEA8A7"></stop></radialGradient><radialGradient id="paint8_radial_29_11" cx="0" cy="0" r="1" gradientUnits="userSpaceOnUse" gradientTransform="translate(25.551 18.1646) rotate(-92.5448) scale(6.97217 10.1344)"><stop offset="0.471" stop-color="#FFC5AC"></stop><stop offset="0.909" stop-color="#FEA8A7"></stop></radialGradient><radialGradient id="paint9_radial_29_11" cx="0" cy="0" r="1" gradientUnits="userSpaceOnUse" gradientTransform="translate(33.8266 19.9414) scale(3.94961 3.94961)"><stop offset="0.279" stop-color="#FDA8A7"></stop><stop offset="0.999" stop-color="#FE848A"></stop></radialGradient><radialGradient id="paint10_radial_29_11" cx="0" cy="0" r="1" gradientUnits="userSpaceOnUse" gradientTransform="translate(17.5956 19.4801) scale(4.22109)"><stop offset="0.279" stop-color="#FDA8A7"></stop><stop offset="0.999" stop-color="#FE848A"></stop></radialGradient><radialGradient id="paint11_radial_29_11" cx="0" cy="0" r="1" gradientUnits="userSpaceOnUse" gradientTransform="translate(25.8809 24.6082) scale(6.15703)"><stop offset="0.279" stop-color="#FDA8A7"></stop><stop offset="0.999" stop-color="#FE848A"></stop></radialGradient><radialGradient id="paint12_radial_29_11" cx="0" cy="0" r="1" gradientUnits="userSpaceOnUse" gradientTransform="translate(31.7625 27.1359) scale(5.025 5.025)"><stop offset="0.279" stop-color="#FDA8A7"></stop><stop offset="0.999" stop-color="#FE848A"></stop></radialGradient><radialGradient id="paint13_radial_29_11" cx="0" cy="0" r="1" gradientUnits="userSpaceOnUse" gradientTransform="translate(18.2589 27.1039) scale(5.24844)"><stop offset="0.279" stop-color="#FDA8A7"></stop><stop offset="0.999" stop-color="#FE848A"></stop></radialGradient></defs></svg>